<svg width="60" height="52" viewBox="0 0 60 52" fill="none" xmlns="http://www.w3.org/2000/svg">
<path d="M57.9369 47.993H54.0044V19.993C54.0044 18.9321 53.583 17.9147 52.8328 17.1645C52.0827 16.4144 51.0653 15.993 50.0044 15.993H39.0044C38.7392 15.993 38.4848 16.0983 38.2973 16.2859C38.1097 16.4734 38.0044 16.7277 38.0044 16.993V47.993H34.0044V4.09547C34.011 3.47242 33.8758 2.85603 33.609 2.29296C33.3422 1.72989 32.9508 1.2349 32.4644 0.845465C31.8014 0.328558 30.9924 0.0336814 30.1523 0.00271551C29.3122 -0.0282503 28.4836 0.206268 27.7844 0.672965L7.78439 13.993C7.23574 14.359 6.78612 14.8551 6.47556 15.4369C6.165 16.0188 6.00314 16.6684 6.00439 17.328V47.993H2.07189C1.55506 47.9853 1.05451 48.1737 0.670928 48.5202C0.287349 48.8666 0.0492026 49.3455 0.00439436 49.8605C-0.0137704 50.134 0.0245081 50.4084 0.116852 50.6666C0.209196 50.9247 0.353633 51.1612 0.541192 51.3611C0.728751 51.5611 0.955426 51.7204 1.20714 51.8291C1.45885 51.9378 1.73022 51.9936 2.00439 51.993H58.0044C58.2786 51.9936 58.5499 51.9378 58.8017 51.8291C59.0534 51.7204 59.28 51.5611 59.4676 51.3611C59.6552 51.1612 59.7996 50.9247 59.8919 50.6666C59.9843 50.4084 60.0226 50.134 60.0044 49.8605C59.9596 49.3455 59.7214 48.8666 59.3379 48.5202C58.9543 48.1737 58.4537 47.9853 57.9369 47.993ZM17.0044 41.993C17.005 42.2671 16.9492 42.5385 16.8405 42.7902C16.7318 43.0419 16.5726 43.2686 16.3726 43.4562C16.1726 43.6437 15.9362 43.7882 15.678 43.8805C15.4199 43.9729 15.1455 44.0111 14.8719 43.993C14.3565 43.9481 13.8773 43.7096 13.5307 43.3255C13.1842 42.9414 12.9961 42.4402 13.0044 41.923V38.0605C12.9974 37.5438 13.1859 37.0436 13.5323 36.6601C13.8786 36.2767 14.3572 36.0383 14.8719 35.993C15.1455 35.9748 15.4199 36.0131 15.678 36.1054C15.9362 36.1978 16.1726 36.3422 16.3726 36.5298C16.5726 36.7173 16.7318 36.944 16.8405 37.1957C16.9492 37.4474 17.005 37.7188 17.0044 37.993V41.993ZM17.0044 27.993C17.005 28.2671 16.9492 28.5385 16.8405 28.7902C16.7318 29.0419 16.5726 29.2686 16.3726 29.4562C16.1726 29.6437 15.9362 29.7882 15.678 29.8805C15.4199 29.9729 15.1455 30.0111 14.8719 29.993C14.3567 29.9476 13.8778 29.7089 13.5314 29.3249C13.185 28.9409 12.9967 28.4401 13.0044 27.923V24.0605C12.9974 23.5438 13.1859 23.0436 13.5323 22.6601C13.8786 22.2767 14.3572 22.0383 14.8719 21.993C15.1455 21.9748 15.4199 22.0131 15.678 22.1054C15.9362 22.1978 16.1726 22.3422 16.3726 22.5298C16.5726 22.7173 16.7318 22.944 16.8405 23.1957C16.9492 23.4474 17.005 23.7188 17.0044 23.993V27.993ZM27.0044 41.993C27.005 42.2671 26.9492 42.5385 26.8405 42.7902C26.7318 43.0419 26.5726 43.2686 26.3726 43.4562C26.1726 43.6437 25.9362 43.7882 25.678 43.8805C25.4199 43.9729 25.1455 44.0111 24.8719 43.993C24.3574 43.9482 23.8789 43.7104 23.5325 43.3273C23.1861 42.9443 22.9974 42.4444 23.0044 41.928V38.0605C22.998 37.5442 23.1868 37.0446 23.5331 36.6617C23.8794 36.2788 24.3576 36.0408 24.8719 35.9955C25.1455 35.9773 25.4199 36.0156 25.678 36.1079C25.9362 36.2003 26.1726 36.3447 26.3726 36.5323C26.5726 36.7198 26.7318 36.9465 26.8405 37.1982C26.9492 37.4499 27.005 37.7213 27.0044 37.9955V41.993ZM27.0044 27.993C27.005 28.2671 26.9492 28.5385 26.8405 28.7902C26.7318 29.0419 26.5726 29.2686 26.3726 29.4562C26.1726 29.6437 25.9362 29.7882 25.678 29.8805C25.4199 29.9729 25.1455 30.0111 24.8719 29.993C24.3576 29.9476 23.8794 29.7097 23.5331 29.3267C23.1868 28.9438 22.998 28.4442 23.0044 27.928V24.0605C22.998 23.5442 23.1868 23.0446 23.5331 22.6617C23.8794 22.2788 24.3576 22.0408 24.8719 21.9955C25.1455 21.9773 25.4199 22.0156 25.678 22.1079C25.9362 22.2003 26.1726 22.3447 26.3726 22.5323C26.5726 22.7198 26.7318 22.9465 26.8405 23.1982C26.9492 23.4499 27.005 23.7213 27.0044 23.9955V27.993Z" fill="white"/>
</svg>
