<svg width="204" height="52" viewBox="0 0 204 52" fill="none" xmlns="http://www.w3.org/2000/svg">
<path d="M2.22539 37V14.4376H16.8997V17.8639H6.31262V23.9892H16.1396V27.4154H6.31262V33.5738H16.9879V37H2.22539ZM24.8814 27.0849V37H20.8933V20.0782H24.7051V22.9536H24.9034C25.2927 22.0062 25.9133 21.2533 26.7653 20.6952C27.6246 20.137 28.6859 19.8579 29.9491 19.8579C31.1169 19.8579 32.1341 20.1076 33.0008 20.607C33.8748 21.1065 34.5505 21.8299 35.0279 22.7773C35.5126 23.7248 35.7513 24.8742 35.7439 26.2256V37H31.7559V26.8425C31.7559 25.7115 31.4621 24.8265 30.8745 24.1875C30.2943 23.5485 29.4901 23.229 28.4619 23.229C27.7641 23.229 27.1435 23.3833 26.6 23.6917C26.0639 23.9929 25.6416 24.4299 25.3331 25.0027C25.032 25.5756 24.8814 26.2697 24.8814 27.0849ZM47.1794 37.3305C45.4901 37.3305 44.0396 36.9596 42.8277 36.2178C41.6232 35.476 40.6942 34.4515 40.0405 33.1441C39.3942 31.8295 39.071 30.3165 39.071 28.6052C39.071 26.8866 39.4015 25.37 40.0625 24.0553C40.7235 22.7333 41.6563 21.705 42.8608 20.9706C44.0726 20.2288 45.5048 19.8579 47.1573 19.8579C48.5308 19.8579 49.7463 20.1113 50.8039 20.618C51.8688 21.1175 52.7171 21.8262 53.3488 22.7443C53.9804 23.655 54.3403 24.72 54.4284 25.9392H50.6166C50.4624 25.1239 50.0951 24.4445 49.5149 23.901C48.9421 23.3502 48.1745 23.0748 47.2124 23.0748C46.3972 23.0748 45.6811 23.2951 45.0641 23.7358C44.4472 24.1691 43.9661 24.7934 43.6209 25.6086C43.2831 26.4239 43.1142 27.4007 43.1142 28.5391C43.1142 29.6922 43.2831 30.6837 43.6209 31.5136C43.9588 32.3362 44.4325 32.9715 45.0421 33.4195C45.659 33.8602 46.3825 34.0806 47.2124 34.0806C47.8 34.0806 48.3251 33.9704 48.7878 33.75C49.2579 33.5224 49.6508 33.1955 49.9666 32.7696C50.2824 32.3436 50.4991 31.8258 50.6166 31.2162H54.4284C54.3329 32.4133 53.9804 33.4746 53.3708 34.4C52.7612 35.3181 51.9313 36.0379 50.881 36.5593C49.8307 37.0734 48.5969 37.3305 47.1794 37.3305ZM65.0844 37.3305C63.4319 37.3305 61.9997 36.9669 60.7878 36.2398C59.576 35.5127 58.6359 34.4955 57.9675 33.1882C57.3065 31.8809 56.976 30.3532 56.976 28.6052C56.976 26.8572 57.3065 25.3259 57.9675 24.0112C58.6359 22.6965 59.576 21.6757 60.7878 20.9485C61.9997 20.2214 63.4319 19.8579 65.0844 19.8579C66.7369 19.8579 68.1691 20.2214 69.3809 20.9485C70.5928 21.6757 71.5292 22.6965 72.1902 24.0112C72.8586 25.3259 73.1927 26.8572 73.1927 28.6052C73.1927 30.3532 72.8586 31.8809 72.1902 33.1882C71.5292 34.4955 70.5928 35.5127 69.3809 36.2398C68.1691 36.9669 66.7369 37.3305 65.0844 37.3305ZM65.1064 34.1356C66.0025 34.1356 66.7516 33.8896 67.3538 33.3975C67.9561 32.8981 68.4041 32.2297 68.6979 31.3925C68.999 30.5552 69.1496 29.6224 69.1496 28.5942C69.1496 27.5586 68.999 26.6222 68.6979 25.7849C68.4041 24.9403 67.9561 24.2683 67.3538 23.7688C66.7516 23.2694 66.0025 23.0197 65.1064 23.0197C64.1884 23.0197 63.4245 23.2694 62.8149 23.7688C62.2127 24.2683 61.761 24.9403 61.4599 25.7849C61.1661 26.6222 61.0192 27.5586 61.0192 28.5942C61.0192 29.6224 61.1661 30.5552 61.4599 31.3925C61.761 32.2297 62.2127 32.8981 62.8149 33.3975C63.4245 33.8896 64.1884 34.1356 65.1064 34.1356ZM80.5657 27.0849V37H76.5776V20.0782H80.3895V22.9536H80.5878C80.977 22.0062 81.5976 21.2533 82.4496 20.6952C83.3089 20.137 84.3702 19.8579 85.6334 19.8579C86.8012 19.8579 87.8184 20.1076 88.6851 20.607C89.5591 21.1065 90.2348 21.8299 90.7122 22.7773C91.1969 23.7248 91.4356 24.8742 91.4283 26.2256V37H87.4402V26.8425C87.4402 25.7115 87.1464 24.8265 86.5589 24.1875C85.9786 23.5485 85.1744 23.229 84.1462 23.229C83.4484 23.229 82.8278 23.3833 82.2843 23.6917C81.7482 23.9929 81.3259 24.4299 81.0174 25.0027C80.7163 25.5756 80.5657 26.2697 80.5657 27.0849ZM103.932 20.0782V23.1629H94.2045V20.0782H103.932ZM96.6062 16.024H100.594V31.9102C100.594 32.4464 100.675 32.8577 100.837 33.1441C101.006 33.4232 101.226 33.6142 101.498 33.717C101.769 33.8198 102.07 33.8712 102.401 33.8712C102.651 33.8712 102.878 33.8529 103.084 33.8162C103.297 33.7794 103.459 33.7464 103.569 33.717L104.241 36.8347C104.028 36.9082 103.723 36.989 103.326 37.0771C102.937 37.1653 102.46 37.2167 101.894 37.2314C100.895 37.2607 99.9956 37.1102 99.1951 36.7797C98.3945 36.4418 97.7592 35.9204 97.2892 35.2153C96.8265 34.5102 96.5988 33.6289 96.6062 32.5713V16.024ZM107.268 37V20.0782H111.135V22.8985H111.311C111.619 21.9217 112.148 21.1689 112.897 20.6401C113.654 20.1039 114.517 19.8359 115.486 19.8359C115.706 19.8359 115.953 19.8469 116.224 19.8689C116.503 19.8836 116.735 19.9093 116.918 19.946V23.6146C116.749 23.5559 116.481 23.5044 116.114 23.4604C115.754 23.409 115.405 23.3833 115.068 23.3833C114.34 23.3833 113.687 23.5412 113.107 23.857C112.534 24.1654 112.082 24.5951 111.751 25.1459C111.421 25.6968 111.256 26.3321 111.256 27.0518V37H107.268ZM126.362 37.3305C124.666 37.3305 123.201 36.978 121.967 36.2729C120.74 35.5605 119.796 34.5543 119.135 33.2543C118.474 31.947 118.144 30.4083 118.144 28.6383C118.144 26.8976 118.474 25.37 119.135 24.0553C119.804 22.7333 120.737 21.705 121.934 20.9706C123.131 20.2288 124.537 19.8579 126.153 19.8579C127.196 19.8579 128.18 20.0268 129.106 20.3647C130.038 20.6952 130.861 21.2093 131.573 21.907C132.293 22.6047 132.859 23.4934 133.27 24.5731C133.681 25.6454 133.887 26.9233 133.887 28.4069V29.6298H120.017V26.9417H130.064C130.057 26.1778 129.892 25.4985 129.568 24.9036C129.245 24.3013 128.794 23.8276 128.213 23.4824C127.64 23.1372 126.972 22.9646 126.208 22.9646C125.393 22.9646 124.677 23.1629 124.06 23.5595C123.443 23.9488 122.962 24.4629 122.617 25.1019C122.279 25.7335 122.106 26.4276 122.099 27.184V29.5306C122.099 30.5148 122.279 31.3594 122.639 32.0645C122.999 32.7622 123.502 33.2984 124.148 33.6729C124.794 34.0402 125.551 34.2238 126.418 34.2238C126.998 34.2238 127.523 34.143 127.993 33.9814C128.463 33.8125 128.871 33.5664 129.216 33.2433C129.561 32.9201 129.822 32.5198 129.998 32.0424L133.722 32.4611C133.487 33.4453 133.039 34.3046 132.378 35.039C131.724 35.7661 130.887 36.3316 129.866 36.7356C128.845 37.1322 127.677 37.3305 126.362 37.3305Z" fill="#030712"/>
<g filter="url(#filter0_ii_114_1611)">
<rect x="142.418" y="0.58139" width="60.8372" height="50.8372" rx="8.55814" fill="#2B92FF"/>
<path d="M150.545 14.4376H157.298L163.027 28.4069H163.291L169.02 14.4376H175.773V37H170.463V23.1409H170.276L164.855 36.8568H161.462L156.042 23.0638H155.855V37H150.545V14.4376ZM179.174 37V14.4376H194.906V18.8664H184.628V23.4934H194.102V27.9332H184.628V32.5713H194.906V37H179.174Z" fill="#F9FAFB"/>
</g>
<defs>
<filter id="filter0_ii_114_1611" x="141.349" y="-1.55814" width="62.9769" height="54.0465" filterUnits="userSpaceOnUse" color-interpolation-filters="sRGB">
<feFlood flood-opacity="0" result="BackgroundImageFix"/>
<feBlend mode="normal" in="SourceGraphic" in2="BackgroundImageFix" result="shape"/>
<feColorMatrix in="SourceAlpha" type="matrix" values="0 0 0 0 0 0 0 0 0 0 0 0 0 0 0 0 0 0 127 0" result="hardAlpha"/>
<feOffset dx="-1.06977" dy="-2.13953"/>
<feGaussianBlur stdDeviation="1.06977"/>
<feComposite in2="hardAlpha" operator="arithmetic" k2="-1" k3="1"/>
<feColorMatrix type="matrix" values="0 0 0 0 0 0 0 0 0 0 0 0 0 0 0 0 0 0 0.25 0"/>
<feBlend mode="normal" in2="shape" result="effect1_innerShadow_114_1611"/>
<feColorMatrix in="SourceAlpha" type="matrix" values="0 0 0 0 0 0 0 0 0 0 0 0 0 0 0 0 0 0 127 0" result="hardAlpha"/>
<feOffset dx="1.06977" dy="1.06977"/>
<feGaussianBlur stdDeviation="2.13953"/>
<feComposite in2="hardAlpha" operator="arithmetic" k2="-1" k3="1"/>
<feColorMatrix type="matrix" values="0 0 0 0 1 0 0 0 0 1 0 0 0 0 1 0 0 0 0.25 0"/>
<feBlend mode="normal" in2="effect1_innerShadow_114_1611" result="effect2_innerShadow_114_1611"/>
</filter>
</defs>
</svg>
