<svg width="64" height="64" viewBox="0 0 64 64" fill="none" xmlns="http://www.w3.org/2000/svg">
<path d="M57.7325 55C57.5569 55.3041 57.3044 55.5566 57.0003 55.7322C56.6961 55.9077 56.3512 56.0001 56 56H8C7.6491 55.9996 7.30447 55.907 7.00072 55.7313C6.69697 55.5556 6.44478 55.3031 6.26949 54.9991C6.09419 54.6951 6.00196 54.3504 6.00205 53.9995C6.00214 53.6486 6.09455 53.3039 6.27 53C10.0775 46.4175 15.945 41.6975 22.7925 39.46C19.4054 37.4436 16.7739 34.3712 15.302 30.7145C13.8301 27.0578 13.5992 23.019 14.6449 19.2184C15.6905 15.4178 17.9548 12.0655 21.0901 9.67631C24.2253 7.28714 28.0582 5.9932 32 5.9932C35.9418 5.9932 39.7747 7.28714 42.9099 9.67631C46.0452 12.0655 48.3095 15.4178 49.3552 19.2184C50.4008 23.019 50.1699 27.0578 48.698 30.7145C47.2261 34.3712 44.5946 37.4436 41.2075 39.46C48.055 41.6975 53.9225 46.4175 57.73 53C57.9059 53.3038 57.9988 53.6486 57.9992 53.9997C57.9996 54.3507 57.9077 54.6957 57.7325 55Z" fill="#F2F4F3"/>
</svg>
